<?xml version="1.0" encoding="utf-8"?>
<!-- Generator: Adobe Illustrator 24.1.2, SVG Export Plug-In . SVG Version: 6.00 Build 0)  -->
<svg version="1.1" id="Layer_1" xmlns="http://www.w3.org/2000/svg" xmlns:xlink="http://www.w3.org/1999/xlink" x="0px" y="0px"
	 viewBox="0 0 242 89" style="enable-background:new 0 0 242 89;" xml:space="preserve">
<g>
	<path d="M25.1,15v25.3c0,1.5-0.2,2.9-0.5,4.3s-0.9,2.6-1.8,3.7c-0.8,1.1-2,1.9-3.5,2.6c-1.5,0.6-3.4,1-5.7,1c-1.4,0-2.7-0.1-4-0.4
		c-1.2-0.3-2.3-0.8-3.3-1.4c-0.9-0.6-1.7-1.5-2.3-2.5c-0.6-1.1-0.9-2.4-1-3.9h2c0.1,1.2,0.4,2.2,0.9,3c0.5,0.8,1.1,1.5,1.9,2.1
		c0.8,0.5,1.7,0.9,2.6,1.2c1,0.2,2,0.4,3.1,0.4c1.8,0,3.4-0.3,4.6-0.8c1.2-0.6,2.2-1.3,2.9-2.2c0.7-0.9,1.2-1.9,1.5-3
		c0.3-1.1,0.4-2.3,0.4-3.4v-6.1H23c-0.9,2-2.2,3.5-3.8,4.5c-1.6,1-3.6,1.6-5.8,1.6c-2,0-3.7-0.3-5.1-1c-1.4-0.7-2.6-1.6-3.6-2.8
		c-1-1.2-1.7-2.6-2.1-4.2c-0.5-1.6-0.7-3.3-0.7-5.2c0-1.8,0.3-3.4,0.8-5c0.5-1.6,1.2-3,2.2-4.2c1-1.2,2.2-2.1,3.6-2.9
		c1.4-0.7,3.1-1.1,5-1.1c2.1,0,4.1,0.5,5.9,1.6c1.8,1.1,3.1,2.6,3.8,4.6h0.1V15H25.1z M13.4,16.1c-1.6,0-3,0.3-4.2,1
		c-1.2,0.7-2.2,1.5-3,2.6c-0.8,1.1-1.4,2.3-1.8,3.7c-0.4,1.4-0.6,2.8-0.6,4.2c0,1.6,0.2,3,0.6,4.4c0.4,1.4,1,2.6,1.8,3.7
		c0.8,1,1.8,1.9,3,2.5c1.2,0.6,2.6,0.9,4.1,0.9c1.6,0,3.1-0.3,4.3-0.9c1.2-0.6,2.2-1.5,3-2.5c0.8-1.1,1.4-2.3,1.8-3.7
		c0.4-1.4,0.6-2.8,0.6-4.3c0-1.5-0.2-2.9-0.6-4.3c-0.4-1.4-1-2.6-1.8-3.7c-0.8-1.1-1.8-1.9-3-2.5C16.4,16.4,15,16.1,13.4,16.1z"/>
	<path d="M29.1,28.6v0.3c0,1.6,0.2,3.1,0.6,4.5c0.4,1.4,1,2.7,1.9,3.7c0.8,1.1,1.8,1.9,3.1,2.5c1.2,0.6,2.7,0.9,4.3,0.9
		c2.7,0,4.8-0.7,6.4-2.1c1.6-1.4,2.6-3.4,3.2-5.8h2c-0.6,3.1-1.9,5.5-3.8,7.2c-2,1.7-4.6,2.5-7.8,2.5c-2,0-3.7-0.4-5.2-1.1
		c-1.5-0.7-2.7-1.7-3.7-2.9c-1-1.2-1.7-2.7-2.2-4.4c-0.5-1.7-0.7-3.5-0.7-5.4c0-1.9,0.3-3.7,0.8-5.4c0.5-1.7,1.3-3.2,2.3-4.5
		c1-1.3,2.3-2.3,3.8-3.1c1.5-0.8,3.3-1.2,5.3-1.2c1.9,0,3.5,0.3,5,1c1.4,0.7,2.6,1.6,3.6,2.8c1,1.2,1.7,2.6,2.2,4.2
		c0.5,1.6,0.8,3.3,0.8,5.1c0,0.2,0,0.4,0,0.6c0,0.2,0,0.4,0,0.5H29.1z M48.7,26.9c-0.1-1.5-0.3-2.8-0.7-4.1c-0.4-1.3-1-2.4-1.9-3.4
		c-0.8-1-1.8-1.8-3-2.4c-1.2-0.6-2.5-0.9-4-0.9c-1.6,0-3,0.3-4.2,0.9c-1.2,0.6-2.2,1.4-3.1,2.4s-1.5,2.1-1.9,3.5
		c-0.5,1.3-0.7,2.7-0.8,4.1H48.7z"/>
	<path d="M52.7,15h2v5.7h0.1c0.3-1,0.8-1.9,1.5-2.7c0.6-0.8,1.4-1.4,2.2-2c0.8-0.6,1.8-1,2.8-1.2c1-0.3,2-0.4,3.1-0.4
		c1.6,0,2.9,0.2,4,0.6c1.1,0.4,2,0.9,2.7,1.5c0.7,0.6,1.2,1.3,1.6,2.1c0.4,0.8,0.7,1.6,0.9,2.4c0.2,0.8,0.3,1.6,0.3,2.3
		c0,0.7,0.1,1.4,0.1,1.9v16.5h-2V24.8c0-0.7-0.1-1.5-0.2-2.5c-0.1-1-0.4-2-0.9-2.9c-0.5-0.9-1.3-1.7-2.3-2.4c-1-0.7-2.4-1-4.2-1
		c-1.5,0-2.9,0.3-4.1,0.8c-1.2,0.6-2.2,1.3-3,2.3c-0.8,1-1.5,2.2-1.9,3.5c-0.4,1.4-0.6,2.9-0.6,4.5v14.5h-2V15z"/>
	<path d="M77.8,28.6v0.3c0,1.6,0.2,3.1,0.6,4.5c0.4,1.4,1,2.7,1.9,3.7c0.8,1.1,1.8,1.9,3.1,2.5c1.2,0.6,2.7,0.9,4.3,0.9
		c2.7,0,4.8-0.7,6.4-2.1c1.6-1.4,2.6-3.4,3.2-5.8h2c-0.6,3.1-1.9,5.5-3.8,7.2c-2,1.7-4.6,2.5-7.8,2.5c-2,0-3.7-0.4-5.2-1.1
		c-1.5-0.7-2.7-1.7-3.7-2.9c-1-1.2-1.7-2.7-2.2-4.4c-0.5-1.7-0.7-3.5-0.7-5.4c0-1.9,0.3-3.7,0.8-5.4c0.5-1.7,1.3-3.2,2.3-4.5
		c1-1.3,2.3-2.3,3.8-3.1c1.5-0.8,3.3-1.2,5.3-1.2c1.9,0,3.5,0.3,5,1c1.4,0.7,2.6,1.6,3.6,2.8c1,1.2,1.7,2.6,2.2,4.2
		c0.5,1.6,0.8,3.3,0.8,5.1c0,0.2,0,0.4,0,0.6c0,0.2,0,0.4,0,0.5H77.8z M97.5,26.9c-0.1-1.5-0.3-2.8-0.7-4.1c-0.4-1.3-1-2.4-1.9-3.4
		c-0.8-1-1.8-1.8-3-2.4c-1.2-0.6-2.5-0.9-4-0.9c-1.6,0-3,0.3-4.2,0.9c-1.2,0.6-2.2,1.4-3.1,2.4s-1.5,2.1-1.9,3.5
		c-0.5,1.3-0.7,2.7-0.8,4.1H97.5z"/>
	<path d="M103.5,20.9h0.2c0.2-0.9,0.7-1.7,1.3-2.4c0.6-0.8,1.4-1.4,2.3-2c0.9-0.6,1.9-1,3.1-1.3c1.1-0.3,2.3-0.4,3.5-0.4v2
		c-1-0.1-2.2,0-3.6,0.3c-1.3,0.3-2.6,1.1-3.8,2.3c-0.5,0.5-0.9,1-1.3,1.5c-0.4,0.5-0.7,1-0.9,1.6c-0.2,0.6-0.4,1.2-0.6,2
		c-0.1,0.7-0.2,1.6-0.3,2.6v14.6h-2V15h2V20.9z"/>
	<path d="M111.5,28.4c0-1.9,0.3-3.7,0.8-5.4c0.5-1.7,1.3-3.2,2.4-4.4c1-1.3,2.3-2.3,3.8-3c1.5-0.7,3.3-1.1,5.3-1.1
		c2,0,3.7,0.4,5.3,1.1c1.5,0.7,2.8,1.8,3.8,3c1,1.3,1.8,2.8,2.4,4.4c0.5,1.7,0.8,3.5,0.8,5.4c0,1.9-0.3,3.7-0.8,5.4
		c-0.5,1.7-1.3,3.2-2.4,4.4c-1,1.3-2.3,2.3-3.8,3s-3.3,1.1-5.3,1.1c-2,0-3.7-0.4-5.3-1.1c-1.5-0.7-2.8-1.8-3.8-3
		c-1-1.3-1.8-2.7-2.4-4.4C111.8,32.1,111.5,30.3,111.5,28.4z M113.5,28.4c0,1.6,0.2,3.1,0.7,4.6c0.5,1.5,1.1,2.8,2,3.9
		c0.9,1.1,1.9,2.1,3.2,2.7c1.3,0.7,2.8,1,4.4,1s3.1-0.3,4.4-1c1.3-0.7,2.4-1.6,3.2-2.7c0.9-1.1,1.5-2.5,2-3.9c0.5-1.5,0.7-3,0.7-4.6
		c0-1.6-0.2-3.1-0.7-4.6c-0.4-1.5-1.1-2.8-2-3.9c-0.9-1.1-1.9-2.1-3.2-2.7c-1.3-0.7-2.8-1-4.4-1s-3.1,0.3-4.4,1
		c-1.3,0.7-2.4,1.6-3.2,2.7c-0.9,1.1-1.5,2.5-2,3.9C113.7,25.2,113.5,26.8,113.5,28.4z"/>
	<path d="M141.9,35.7c0.4,0.7,1,1.2,1.6,1.6c0.7,0.4,1.4,0.7,2.3,0.9c0.8,0.2,1.7,0.3,2.6,0.3c0.7,0,1.4-0.1,2.2-0.2
		c0.8-0.1,1.5-0.3,2.1-0.6c0.6-0.3,1.2-0.7,1.6-1.2c0.4-0.5,0.6-1.2,0.6-2.1c0-1.1-0.4-2-1.3-2.6c-0.9-0.6-2-1.1-3.2-1.4
		c-1.3-0.4-2.7-0.7-4.2-1c-1.5-0.3-2.9-0.7-4.2-1.2c-1.3-0.5-2.4-1.3-3.2-2.3c-0.9-1-1.3-2.3-1.3-4.1c0-1.4,0.3-2.5,0.9-3.5
		c0.6-1,1.4-1.8,2.3-2.4c1-0.6,2-1.1,3.2-1.4c1.2-0.3,2.4-0.4,3.6-0.4c1.5,0,2.9,0.1,4.2,0.4c1.3,0.3,2.4,0.7,3.4,1.4
		c1,0.6,1.8,1.5,2.4,2.6c0.6,1.1,0.9,2.5,1,4.1H154c-0.1-0.9-0.3-1.6-0.7-2.2c-0.4-0.6-0.9-1-1.5-1.4c-0.6-0.3-1.2-0.6-2-0.8
		c-0.7-0.2-1.4-0.2-2.2-0.2c-0.7,0-1.3,0.1-2,0.2s-1.3,0.3-1.8,0.5c-0.6,0.3-1,0.6-1.4,1c-0.3,0.4-0.5,1-0.5,1.7
		c0,0.8,0.3,1.4,0.8,1.9c0.5,0.5,1.2,0.9,2.1,1.2c0.8,0.3,1.8,0.6,2.8,0.8c1,0.2,2.1,0.5,3.1,0.7c1.1,0.2,2.2,0.5,3.2,0.9
		c1.1,0.3,2,0.8,2.8,1.4c0.8,0.6,1.5,1.3,2,2.2c0.5,0.9,0.8,1.9,0.8,3.2c0,1.6-0.3,3-1,4.1c-0.7,1.1-1.6,1.9-2.7,2.6
		c-1.1,0.7-2.3,1.1-3.7,1.4c-1.4,0.3-2.7,0.4-4.1,0.4c-1.5,0-2.9-0.2-4.3-0.5c-1.4-0.3-2.5-0.8-3.6-1.5c-1-0.7-1.9-1.6-2.5-2.8
		c-0.6-1.2-1-2.6-1-4.2h4.4C141.2,34.2,141.4,35,141.9,35.7z"/>
	<path d="M166.3,4.6v14.2h0.1c0.3-0.8,0.8-1.5,1.5-2.1c0.6-0.6,1.3-1,2.1-1.4c0.8-0.4,1.6-0.6,2.4-0.8c0.8-0.2,1.7-0.3,2.5-0.3
		c1.8,0,3.2,0.2,4.4,0.7c1.2,0.5,2.1,1.2,2.9,2c0.7,0.9,1.2,1.9,1.5,3.1c0.3,1.2,0.4,2.5,0.4,4v17.7h-4.4V23.5c0-1.7-0.5-3-1.5-4
		c-1-1-2.3-1.5-4-1.5c-1.4,0-2.5,0.2-3.5,0.6c-1,0.4-1.8,1-2.5,1.8c-0.7,0.8-1.2,1.7-1.5,2.7c-0.3,1-0.5,2.1-0.5,3.4v15.2h-4.4V4.6
		H166.3z"/>
	<path d="M187.6,22.8c0.6-1.7,1.4-3.2,2.5-4.5c1.1-1.3,2.5-2.3,4.1-3s3.5-1.1,5.6-1.1c2.1,0,4,0.4,5.6,1.1c1.6,0.7,3,1.7,4.1,3
		c1.1,1.3,1.9,2.8,2.5,4.5c0.6,1.7,0.8,3.6,0.8,5.5s-0.3,3.8-0.8,5.5c-0.6,1.7-1.4,3.2-2.5,4.4c-1.1,1.3-2.5,2.3-4.1,3
		c-1.6,0.7-3.5,1.1-5.6,1.1c-2.1,0-4-0.4-5.6-1.1c-1.6-0.7-3-1.7-4.1-3c-1.1-1.3-1.9-2.7-2.5-4.4c-0.6-1.7-0.8-3.5-0.8-5.5
		S187,24.5,187.6,22.8z M192.1,32.6c0.4,1.3,1,2.3,1.8,3.2c0.8,0.8,1.7,1.5,2.7,1.9c1,0.5,2.1,0.7,3.2,0.7c1.1,0,2.2-0.2,3.2-0.7
		c1-0.5,1.9-1.1,2.7-1.9c0.8-0.8,1.4-1.9,1.8-3.2c0.4-1.3,0.6-2.7,0.6-4.3c0-1.6-0.2-3.1-0.6-4.3c-0.4-1.3-1-2.3-1.8-3.2
		c-0.8-0.9-1.7-1.5-2.7-2c-1-0.5-2.1-0.7-3.2-0.7c-1.1,0-2.2,0.2-3.2,0.7c-1,0.5-1.9,1.1-2.7,2c-0.8,0.9-1.4,1.9-1.8,3.2
		c-0.4,1.3-0.7,2.7-0.7,4.3C191.4,29.9,191.6,31.4,192.1,32.6z"/>
	<path d="M220,14.8v3.6h0.1c0.7-1.5,1.9-2.6,3.4-3.2c1.6-0.7,3.3-1,5.1-1c2.1,0,3.9,0.4,5.4,1.1c1.5,0.8,2.8,1.8,3.8,3.1
		c1,1.3,1.8,2.8,2.3,4.5c0.5,1.7,0.8,3.5,0.8,5.4c0,1.9-0.3,3.7-0.8,5.4c-0.5,1.7-1.3,3.2-2.3,4.4c-1,1.3-2.3,2.3-3.8,3
		c-1.5,0.7-3.3,1.1-5.4,1.1c-0.7,0-1.4-0.1-2.2-0.2c-0.8-0.1-1.6-0.4-2.4-0.7c-0.8-0.3-1.6-0.7-2.3-1.3c-0.7-0.5-1.3-1.2-1.8-2H220
		V52h-4.4V14.8H220z M235.9,24.4c-0.3-1.2-0.8-2.3-1.5-3.2s-1.5-1.7-2.6-2.2c-1.1-0.6-2.3-0.8-3.7-0.8c-1.5,0-2.8,0.3-3.8,0.9
		c-1,0.6-1.9,1.4-2.5,2.3c-0.7,1-1.1,2-1.4,3.2c-0.3,1.2-0.4,2.4-0.4,3.7c0,1.3,0.2,2.6,0.5,3.8c0.3,1.2,0.8,2.3,1.5,3.2
		s1.6,1.7,2.6,2.3c1.1,0.6,2.4,0.9,3.9,0.9s2.8-0.3,3.8-0.9c1-0.6,1.8-1.4,2.5-2.3c0.6-1,1.1-2.1,1.4-3.3c0.3-1.2,0.4-2.5,0.4-3.8
		C236.4,26.8,236.2,25.6,235.9,24.4z"/>
</g>
<g>
	<g>
		<path d="M125.6,53.2c-0.9-1-2.2-2.2-3.5-2.8c-6.3-2.9-12.3-0.4-16.2,4.8c-2.8,3.8-6,8.7-11.5,7.2c-1.2-0.3-2.3-1.3-2.7-2.5
			c-0.5-1.3,0.2-2.9,1.7-3c0.4,0,1.2,0.1,1.2,0.6c0.5-1-0.3-2.1-1.3-2.5c-1.3-0.4-2.6-0.2-3.7,0.5c-0.9,0.6-1.5,1.5-1.6,2.6
			c-0.1,0.9,0.3,2.2,0.9,2.9c-1.7-0.6-2.6-3.2-2.7-4.8c-0.1-4.3,4.5-6.6,8.2-5.1c0.8,0.3,3.5,1.8,2.9,3c1.2-2.3-0.5-4.4-2.4-5.6
			c-2.2-1.3-5.1-1.6-7.5-0.5c-2.2,1-4,3.7-4.4,6c-0.5,3.1,0.8,6.5,3.1,8.6c2.1,1.8,4.8,2.8,7.6,2.8c1.7,0,3.5-0.3,5.1-0.9
			c6.4-2.2,9.3-15.8,17.9-12.2c1.6,0.7,3.2,3,1.8,4.7c-0.3,0.4-0.8,0.6-1.3,0.7c-0.4,0-1.2-0.1-1.2-0.6c-0.5,1,0.3,2.1,1.3,2.5
			c1.2,0.4,2.6,0.2,3.7-0.5c0.9-0.6,1.5-1.5,1.6-2.6c0.1-0.9-0.3-2.2-0.9-2.9c1.7,0.6,2.6,3.2,2.7,4.8c0.1,4.3-4.5,6.6-8.2,5.1
			c-0.8-0.3-3.5-1.8-2.9-3c-1.2,2.3,0.5,4.4,2.4,5.6c2.2,1.3,5.1,1.6,7.5,0.5c2.2-1,4-3.7,4.4-6C128.1,58,127.3,55.2,125.6,53.2z"/>
	</g>
	<g>
		<path d="M127.7,61.1c0.4,2.3,2.2,5,4.4,6c2.4,1.1,5.3,0.9,7.5-0.5c1.9-1.2,3.6-3.3,2.4-5.6c0.6,1.3-2.1,2.7-2.9,3
			c-3.7,1.5-8.3-0.8-8.2-5.1c0-1.6,1-4.2,2.7-4.8c-0.6,0.7-1,2-0.9,2.9c0.1,1,0.8,2,1.6,2.6c1.1,0.7,2.5,0.9,3.7,0.5
			c1-0.3,1.8-1.4,1.3-2.5c0,0.5-0.8,0.7-1.2,0.6c-0.5-0.1-1-0.3-1.3-0.7c-1.4-1.7,0.1-4,1.8-4.7c8.6-3.7,11.5,9.9,17.9,12.2
			c1.6,0.6,3.4,0.9,5.1,0.9c2.8,0,5.5-1,7.6-2.8c2.4-2.1,3.7-5.5,3.1-8.6c-0.4-2.3-2.2-5-4.4-6c-2.4-1.1-5.3-0.9-7.5,0.5
			c-1.9,1.2-3.6,3.3-2.4,5.6c-0.6-1.3,2.1-2.7,2.9-3c3.7-1.5,8.3,0.8,8.2,5.1c0,1.6-1,4.2-2.7,4.8c0.6-0.7,1-2,0.9-2.9
			c-0.1-1-0.8-2-1.6-2.6c-1.1-0.7-2.5-0.9-3.7-0.5c-1,0.3-1.8,1.4-1.3,2.5c0-0.5,0.8-0.7,1.2-0.6c1.6,0.2,2.2,1.7,1.7,3
			c-0.4,1.1-1.5,2.1-2.7,2.5c-5.5,1.5-8.7-3.4-11.5-7.2c-3.9-5.2-9.9-7.8-16.2-4.8c-1.3,0.6-2.6,1.8-3.5,2.8
			C128,55.7,127.3,58.5,127.7,61.1z"/>
	</g>
	<path d="M130.6,69c-0.5-1.3-1.2-2.6-2-3.9c-0.1-0.1-0.6-1.1-0.7-1.1h-0.1c-0.3,0.4-0.6,0.9-0.8,1.3c-0.5,0.8-0.9,1.6-1.3,2.4
		c-0.5,1.1-0.9,2.3-1.1,3.5c-0.3,1.9-0.3,3.9,1.3,5.6c0.4,0.5,1,0.9,1.9,1c0,0,0.1,0,0.1,0c0,0,0.1,0,0.1,0c0.8-0.1,1.4-0.6,1.9-1
		c0.5-0.5,0.8-1.1,1-1.6c0.2-0.5,0.3-0.9,0.3-1.4c0-0.4,0.1-0.7,0.1-1.1c0-0.6,0-1.1-0.2-1.7C131,70.3,130.8,69.6,130.6,69z"/>
</g>
</svg>
